<?xml version="1.0" encoding="UTF-8"?>
<svg id="Layer_1" data-name="Layer 1" xmlns="http://www.w3.org/2000/svg" viewBox="0 0 1500 1371.92">
  <defs>
    <style>
      .cls-1 {
        opacity: .54;
      }

      .cls-1, .cls-2, .cls-3 {
        fill: #1c0c40;
      }

      .cls-3 {
        opacity: .63;
      }
    </style>
  </defs>
  <path class="cls-1" d="M1496,97.94c-136,84-276,148-432,184-276,72-568-8-796-188C216,53.94,160,21.94,92,5.94,63.93-1.71,27.73-2.84,0,7.73V675.32H1500V95.64c-1.34,.77-2.66,1.54-4,2.3Z"/>
  <path class="cls-2" d="M1496,196.61c-136,84-276,148-432,184-276,72-568-8-796-188-52-40-108-72-176-88-28.07-7.66-64.27-8.78-92,1.78V773.98H1500V194.3c-1.34,.77-2.66,1.54-4,2.3Z"/>
  <path class="cls-2" d="M0,656.45v263.28c27.73-10.56,63.93-9.44,92-1.78,68,16,124,48,176,88,228,180,520,260,796,188,156-36,296-100,432-184,1.34-.77,2.66-1.54,4-2.3v-353.22c-499.2,19.38-1001.29-19.8-1500,2.03Z"/>
  <path class="cls-3" d="M0,808.11v263.28c27.73-10.56,63.93-9.44,92-1.78,68,16,124,48,176,88,228,180,520,260,796,188,156-36,296-100,432-184,1.34-.77,2.66-1.54,4-2.3v-353.22c-499.2,19.38-1001.29-19.8-1500,2.03Z"/>
</svg>