<?xml version="1.0" encoding="UTF-8"?>
<svg id="Layer_1" data-name="Layer 1" xmlns="http://www.w3.org/2000/svg" viewBox="0 0 1500 1290.81">
  <defs>
    <style>
      .cls-1, .cls-2 {
        fill: #1c0c40;
      }

      .cls-2 {
        opacity: .57;
      }
    </style>
  </defs>
  <path class="cls-1" d="M56,1108.92c128-56,260-104,400-88,152,16,284,92,440,120,100,16,188,4,288-12,4-4,4-12,8-16,32-8,64-20,92-36,60-32,120-64,176-88,13.18-5.65,26.58-10.63,40-15.47V170.2c-175.39-68.65-372.48-58.29-548,1.39-128,40-224,136-344,204-100,52-204,96-316,104-94.69,3.79-218.03,32.61-292-39.04v726.17c16.59-22.16,31.82-47.43,56-57.8Z"/>
  <path class="cls-2" d="M56,1219.35c128-69.24,260-128.58,400-108.8,152,19.78,284,113.74,440,148.36,100,19.78,188,4.95,288-14.84,4-4.95,4-14.84,8-19.78,32-9.89,64-24.73,92-44.51,60-39.56,120-79.13,176-108.8,13.18-6.98,26.58-13.14,40-19.12V58.76c-175.39-84.88-372.48-72.07-548,1.72-128,49.45-224,168.14-344,252.22-100,64.29-204,118.69-316,128.58-94.69,4.68-218.03,40.32-292-48.27v897.8c16.59-27.4,31.82-58.64,56-71.46Z"/>
</svg>