<?xml version="1.0" encoding="UTF-8"?>
<svg id="Layer_1" data-name="Layer 1" xmlns="http://www.w3.org/2000/svg" viewBox="0 0 1500 400">
  <defs>
    <style>
      .cls-1, .cls-2, .cls-3 {
        fill: #1c0c40;
      }

      .cls-2 {
        opacity: .54;
      }

      .cls-2, .cls-3 {
        isolation: isolate;
      }

      .cls-3 {
        opacity: .63;
      }
    </style>
  </defs>
  <path class="cls-2" d="M1496,28.56c-136,24.49-276,43.15-432,53.65-276,20.99-568-2.33-796-54.81C216,15.73,160,6.4,92,1.73,63.93-.5,27.73-.83,0,2.25V196.9H1500V27.88c-1.34,.22-2.66,.45-4,.67Z"/>
  <path class="cls-1" d="M1496,57.32c-136,24.49-276,43.15-432,53.65-276,20.99-568-2.33-796-54.81-52-11.66-108-20.99-176-25.66-28.07-2.23-64.27-2.56-92,.52V225.66H1500V56.65c-1.34,.22-2.66,.45-4,.67h0Z"/>
  <path class="cls-1" d="M0,191.4v76.76c27.73-3.08,63.93-2.75,92-.52,68,4.66,124,13.99,176,25.66,228,52.48,520,75.81,796,54.81,156-10.5,296-29.16,432-53.65,1.34-.22,2.66-.45,4-.67v-102.99c-499.2,5.65-1001.29-5.77-1500,.59H0Z"/>
  <path class="cls-3" d="M0,235.61v76.76c27.73-3.08,63.93-2.75,92-.52,68,4.66,124,13.99,176,25.66,228,52.48,520,75.81,796,54.81,156-10.5,296-29.16,432-53.65,1.34-.22,2.66-.45,4-.67v-102.99c-499.2,5.65-1001.29-5.77-1500,.59H0Z"/>
</svg>