<?xml version="1.0" encoding="UTF-8"?>
<svg id="Layer_1" data-name="Layer 1" xmlns="http://www.w3.org/2000/svg" viewBox="0 0 1599 1550.21">
  <defs>
    <style>
      .cls-1 {
        fill: #f29f05;
      }
    </style>
  </defs>
  <g>
    <path class="cls-1" d="M349.08,1400.75H50.67c-2.17,6.92-.81,11.39,0,13.56,4.34,10.85,20.89,17.5,40.69,13.56-21.02,32.96-8.95,70.94,13.56,81.38,15.73,7.33,37.71,1.63,54.26-13.56,.95,33.91,28.89,57.24,54.26,54.26,18.72-2.17,35.54-18.58,40.69-40.69,18.72,9.9,40.28,10.31,54.26,0,20.35-15.06,24.82-53.31,0-81.38,19.8,3.93,36.35-2.71,40.69-13.56,.41-1.09,.95-2.58,1.09-4.61v-.14c.27-2.3,0-5.15-1.09-8.82h0Zm-210.24,88.17c-9.36,5.02-20.07,5.15-27.13,0-10.17-7.6-12.48-26.72,0-40.69,18.04-9.09,36.22-18.04,54.26-27.13-9.09,22.65-18.04,45.17-27.13,67.82Zm73.25,33.23c-13.16,2.44-27.13-5.56-32.55-19.67,9.09-27.13,18.04-54.26,27.13-81.38,9.09,27.13,18.04,54.26,27.13,81.38-3.53,10.17-11.8,17.91-21.7,19.67h-.01Zm80.98-33.23c-6.92,5.15-17.77,5.02-27.13,0-8.95-22.65-18.04-45.17-27.13-67.82,18.18,9.09,36.22,18.04,54.26,27.13,12.48,13.97,10.17,33.1,0,40.69Z"/>
    <path class="cls-1" d="M653.1,1400.75H354.69c-.81,2.58-1.22,4.88-1.22,6.78,0,3.12,.68,5.42,1.22,6.78,.27,.68,.68,1.36,1.09,2.03v.14c5.56,9.5,21.16,15.06,39.61,11.39-21.02,32.96-8.95,70.94,13.56,81.38,15.73,7.33,37.71,1.63,54.26-13.56,.95,33.91,28.89,57.24,54.26,54.26,18.72-2.17,35.54-18.58,40.69-40.69,18.72,9.9,40.28,10.31,54.26,0,20.35-15.06,24.82-53.31,0-81.38,19.8,3.93,36.35-2.71,40.69-13.56,.81-2.17,2.17-6.65,0-13.56h-.01Zm-210.24,88.15c-9.36,5.02-20.07,5.15-27.13,0-10.17-7.6-12.48-26.72,0-40.69,18.04-9.09,36.22-18.04,54.26-27.13-9.09,22.65-18.04,45.17-27.13,67.82Zm73.25,33.23c-13.16,2.44-27.13-5.56-32.55-19.67,9.09-27.13,18.04-54.26,27.13-81.38,9.09,27.13,18.04,54.26,27.13,81.38-3.53,10.17-11.8,17.91-21.7,19.67h-.01Zm80.98-33.23c-6.92,5.15-17.77,5.02-27.13,0-8.95-22.65-18.04-45.17-27.13-67.82,18.18,9.09,36.22,18.04,54.26,27.13,12.48,13.97,10.17,33.1,0,40.69Z"/>
    <path class="cls-1" d="M951.51,1400.75h-298.41c-2.17,6.92-.81,11.39,0,13.56,4.34,10.85,20.89,17.5,40.69,13.56-21.02,32.96-8.95,70.94,13.56,81.38,15.73,7.33,37.71,1.63,54.26-13.56,.95,33.91,28.89,57.24,54.26,54.26,18.72-2.17,35.54-18.58,40.69-40.69,18.72,9.9,40.28,10.31,54.26,0,20.35-15.06,24.82-53.31,0-81.38,19.8,3.93,36.35-2.71,40.69-13.56,.81-2.17,2.17-6.65,0-13.56h0Zm-210.24,88.15c-9.36,5.02-20.07,5.15-27.13,0-10.17-7.6-12.48-26.72,0-40.69,18.04-9.09,36.22-18.04,54.26-27.13-9.09,22.65-18.04,45.17-27.13,67.82Zm73.25,33.23c-13.16,2.44-27.13-5.56-32.55-19.67,9.09-27.13,18.04-54.26,27.13-81.38,9.09,27.13,18.04,54.26,27.13,81.38-3.53,10.17-11.8,17.91-21.7,19.67h-.01Zm80.98-33.23c-6.92,5.15-17.77,5.02-27.13,0-8.95-22.65-18.04-45.17-27.13-67.82,18.18,9.09,36.22,18.04,54.26,27.13,12.48,13.97,10.17,33.1,0,40.69Z"/>
    <path class="cls-1" d="M1249.92,1400.75h-298.41c-2.17,6.92-.81,11.39,0,13.56,4.34,10.85,20.89,17.5,40.69,13.56-21.02,32.96-8.95,70.94,13.56,81.38,15.73,7.33,37.71,1.63,54.26-13.56,.95,33.91,28.89,57.24,54.26,54.26,18.72-2.17,35.54-18.58,40.69-40.69,18.72,9.9,40.28,10.31,54.26,0,20.35-15.06,24.82-53.31,0-81.38,19.8,3.93,36.35-2.71,40.69-13.56,.81-2.17,2.17-6.65,0-13.56h0Zm-210.24,88.15c-9.36,5.02-20.07,5.15-27.13,0-10.17-7.6-12.48-26.72,0-40.69,18.04-9.09,36.22-18.04,54.26-27.13-9.09,22.65-18.04,45.17-27.13,67.82Zm73.25,33.23c-13.16,2.44-27.13-5.56-32.55-19.67,9.09-27.13,18.04-54.26,27.13-81.38,9.09,27.13,18.04,54.26,27.13,81.38-3.53,10.17-11.8,17.91-21.7,19.67h-.01Zm80.98-33.23c-6.92,5.15-17.77,5.02-27.13,0-8.95-22.65-18.04-45.17-27.13-67.82,18.18,9.09,36.22,18.04,54.26,27.13,12.48,13.97,10.17,33.1,0,40.69Z"/>
    <path class="cls-1" d="M1548.33,1400.75h-298.41c-2.17,6.92-.81,11.39,0,13.56,4.34,10.85,20.89,17.5,40.69,13.56-21.02,32.96-8.95,70.94,13.56,81.38,15.73,7.33,37.71,1.63,54.26-13.56,.95,33.91,28.89,57.24,54.26,54.26,18.72-2.17,35.54-18.58,40.69-40.69,18.72,9.9,40.28,10.31,54.26,0,20.35-15.06,24.82-53.31,0-81.38,19.8,3.93,36.35-2.71,40.69-13.56,.81-2.17,2.17-6.65,0-13.56h0Zm-210.24,88.15c-9.36,5.02-20.07,5.15-27.13,0-10.17-7.6-12.48-26.72,0-40.69,18.04-9.09,36.22-18.04,54.26-27.13-9.09,22.65-18.04,45.17-27.13,67.82Zm73.25,33.23c-13.16,2.44-27.13-5.56-32.55-19.67,9.09-27.13,18.04-54.26,27.13-81.38,9.09,27.13,18.04,54.26,27.13,81.38-3.53,10.17-11.8,17.91-21.7,19.67h-.01Zm80.98-33.23c-6.92,5.15-17.77,5.02-27.13,0-8.95-22.65-18.04-45.17-27.13-67.82,18.18,9.09,36.22,18.04,54.26,27.13,12.48,13.97,10.17,33.1,0,40.69Z"/>
  </g>
  <ellipse class="cls-1" cx="1549" cy="60" rx="50" ry="60"/>
  <ellipse class="cls-1" cx="1549" cy="1357.56" rx="50" ry="60"/>
  <ellipse class="cls-1" cx="1549" cy="1239.6" rx="50" ry="60"/>
  <ellipse class="cls-1" cx="1549" cy="1121.64" rx="50" ry="60"/>
  <ellipse class="cls-1" cx="1549" cy="1003.68" rx="50" ry="60"/>
  <ellipse class="cls-1" cx="1549" cy="885.72" rx="50" ry="60"/>
  <ellipse class="cls-1" cx="1549" cy="767.76" rx="50" ry="60"/>
  <ellipse class="cls-1" cx="1549" cy="649.8" rx="50" ry="60"/>
  <ellipse class="cls-1" cx="1549" cy="531.84" rx="50" ry="60"/>
  <ellipse class="cls-1" cx="1549" cy="413.88" rx="50" ry="60"/>
  <ellipse class="cls-1" cx="1549" cy="295.92" rx="50" ry="60"/>
  <ellipse class="cls-1" cx="1549" cy="177.96" rx="50" ry="60"/>
  <ellipse class="cls-1" cx="50" cy="60" rx="50" ry="60"/>
  <ellipse class="cls-1" cx="50" cy="1357.56" rx="50" ry="60"/>
  <ellipse class="cls-1" cx="50" cy="1239.6" rx="50" ry="60"/>
  <ellipse class="cls-1" cx="50" cy="1121.64" rx="50" ry="60"/>
  <ellipse class="cls-1" cx="50" cy="1003.68" rx="50" ry="60"/>
  <ellipse class="cls-1" cx="50" cy="885.72" rx="50" ry="60"/>
  <ellipse class="cls-1" cx="50" cy="767.76" rx="50" ry="60"/>
  <ellipse class="cls-1" cx="50" cy="649.8" rx="50" ry="60"/>
  <ellipse class="cls-1" cx="50" cy="531.84" rx="50" ry="60"/>
  <ellipse class="cls-1" cx="50" cy="413.88" rx="50" ry="60"/>
  <ellipse class="cls-1" cx="50" cy="295.92" rx="50" ry="60"/>
  <ellipse class="cls-1" cx="50" cy="177.96" rx="50" ry="60"/>
  <path class="cls-1" d="M50,.21V1413H1550V.21H50ZM196.83,50.41c.27,2.17,.27,4.47,.27,6.63,0,46.75-37.84,84.59-84.47,84.59-2.16,0-4.46,0-6.61-.27,.13-50.26,40.67-90.81,90.81-90.95Zm-58.92,1303.62h-27.03v-27.03h27.03v27.03Zm0-1150.39h-27.03v-27.03h27.03v27.03Zm59.72,1150.39h-27.03v-27.03h27.03v27.03Zm0-1150.39h-27.03v-27.03h27.03v27.03Zm68.11,1150.39h-27.03v-27.03h27.03v27.03Zm0-1150.39h-27.03v-27.03h27.03v27.03ZM216.69,57.04c0-2.16,.14-4.46,.26-6.63,50.28,.14,90.81,40.69,90.95,90.95-2.15,.27-4.45,.27-6.62,.27-46.76,0-84.59-37.84-84.59-84.59Zm117.16,1296.99h-27.03v-27.03h27.03v27.03Zm0-1150.39h-27.03v-27.03h27.03v27.03Zm67.97,1150.39h-27.02v-27.03h27.02v27.03Zm0-1150.39h-27.02v-27.03h27.02v27.03Zm-51.89-62.01c-2.3,0-4.46,0-6.75-.27,.12-50.26,40.81-90.81,90.94-90.95,.14,2.17,.28,4.47,.28,6.63,0,46.75-37.84,84.59-84.47,84.59Zm120.01,1212.4h-27.03v-27.03h27.03v27.03Zm0-1150.39h-27.03v-27.03h27.03v27.03Zm67.96,1150.39h-27.02v-27.03h27.02v27.03Zm0-1150.39h-27.02v-27.03h27.02v27.03Zm.54-62.01c-46.76,0-84.6-37.84-84.6-84.59,0-2.16,.15-4.46,.29-6.63,50.26,.14,90.81,40.69,91.07,90.95-2.29,.27-4.46,.27-6.76,.27Zm67.57,1212.4h-27.03v-27.03h27.03v27.03Zm0-1150.39h-27.03v-27.03h27.03v27.03Zm-18.92-62.01c-2.16,0-4.46,0-6.75-.27,.26-50.26,40.81-90.81,90.95-90.95,.27,2.17,.27,4.47,.27,6.63,0,46.75-37.84,84.59-84.47,84.59h0Zm86.89,1212.4h-27.03v-27.03h27.03v27.03Zm0-1150.39h-27.03v-27.03h27.03v27.03Zm68.11,1150.39h-27.03v-27.03h27.03v27.03Zm0-1150.39h-27.03v-27.03h27.03v27.03Zm33.52-62.01c-46.63,0-84.47-37.84-84.47-84.59,0-2.16,0-4.46,.27-6.63,50.14,.14,90.81,40.69,90.95,90.95-2.15,.27-4.45,.27-6.75,.27Zm34.59,1212.4h-27.02v-27.03h27.02v27.03Zm0-1150.39h-27.02v-27.03h27.02v27.03Zm67.98,1150.39h-27.03v-27.03h27.03v27.03Zm0-1150.39h-27.03v-27.03h27.03v27.03Zm-53.79-62.01c-2.3,0-4.6,0-6.75-.27,.12-50.26,40.81-90.81,90.81-90.95,.27,2.17,.41,4.47,.41,6.63,0,46.75-37.84,84.59-84.47,84.59h0Zm121.89,1212.4h-27.02v-27.03h27.02v27.03Zm0-1150.39h-27.02v-27.03h27.02v27.03Zm67.97,1150.39h-27.03v-27.03h27.03v27.03Zm0-1150.39h-27.03v-27.03h27.03v27.03Zm-1.35-62.01c-46.76,0-84.6-37.84-84.6-84.59,0-2.16,.14-4.46,.28-6.63,50.27,.14,90.82,40.69,91.08,90.95-2.29,.27-4.59,.27-6.76,.27h0Zm69.46,1212.4h-27.03v-27.03h27.03v27.03Zm0-1150.39h-27.03v-27.03h27.03v27.03Zm-20.81-62.01c-2.3,0-4.46,0-6.75-.27,.26-50.26,40.81-90.81,90.95-90.95,.12,2.17,.26,4.47,.26,6.63,0,46.75-37.83,84.59-84.46,84.59Zm88.92,1212.4h-27.03v-27.03h27.03v27.03Zm0-1150.39h-27.03v-27.03h27.03v27.03Zm67.98,1150.39h-27.03v-27.03h27.03v27.03Zm0-1150.39h-27.03v-27.03h27.03v27.03Zm31.62-62.01c-46.76,0-84.59-37.84-84.59-84.59,0-2.16,.12-4.46,.39-6.63,50.14,.14,90.81,40.69,90.95,90.95-2.29,.27-4.45,.27-6.75,.27Zm36.49,1212.4h-27.03v-27.03h27.03v27.03Zm0-1150.39h-27.03v-27.03h27.03v27.03Zm67.96,1150.39h-27.02v-27.03h27.02v27.03Zm0-1150.39h-27.02v-27.03h27.02v27.03Zm-55.8-62.01c-2.17,0-4.47,0-6.62-.27,.12-50.26,40.67-90.81,90.81-90.95,.26,2.17,.26,4.47,.26,6.63,0,46.75-37.83,84.59-84.45,84.59Zm123.91,1212.4h-27.03v-27.03h27.03v27.03Zm0-1150.39h-27.03v-27.03h27.03v27.03Zm64.73-62.01c-46.76,0-84.6-37.84-84.6-84.59,0-2.16,.14-4.46,.28-6.63,50.27,.14,90.81,40.69,90.94,90.95-2.15,.27-4.45,.27-6.62,.27Z"/>
</svg>