<?xml version="1.0" encoding="UTF-8"?>
<svg id="Capa_1" data-name="Capa 1" xmlns="http://www.w3.org/2000/svg" viewBox="0 0 876.17 1000.17">
  <defs>
    <style>
      .cls-1 {
        fill: #2fac66;
      }

      .cls-1, .cls-2, .cls-3, .cls-4, .cls-5, .cls-6, .cls-7, .cls-8, .cls-9, .cls-10, .cls-11, .cls-12, .cls-13, .cls-14 {
        stroke-linejoin: round;
      }

      .cls-1, .cls-3, .cls-5, .cls-6, .cls-7, .cls-8, .cls-9, .cls-10, .cls-13, .cls-14 {
        stroke: #29235c;
      }

      .cls-1, .cls-3, .cls-5, .cls-6, .cls-7, .cls-8, .cls-10, .cls-13, .cls-14 {
        stroke-width: 2px;
      }

      .cls-2, .cls-3, .cls-15 {
        fill: #e6007e;
      }

      .cls-2, .cls-11, .cls-12 {
        stroke: #222677;
      }

      .cls-16 {
        fill: #662483;
      }

      .cls-17, .cls-11 {
        fill: #36a9e1;
      }

      .cls-4 {
        stroke: #36a9e1;
      }

      .cls-4, .cls-18 {
        fill: #a3195b;
      }

      .cls-19 {
        fill: #f39200;
      }

      .cls-5 {
        fill: #951b81;
      }

      .cls-6 {
        fill: #e94e1b;
      }

      .cls-7 {
        fill: #ffed00;
      }

      .cls-20 {
        fill: #e8e7d2;
      }

      .cls-8 {
        fill: #fcea10;
      }

      .cls-9 {
        stroke-width: 3px;
      }

      .cls-9, .cls-10 {
        fill: #393e7a;
      }

      .cls-12 {
        fill: #008d36;
      }

      .cls-21 {
        fill: #1d1d1b;
      }

      .cls-13 {
        fill: #23295b;
      }

      .cls-14 {
        fill: #461560;
      }
    </style>
  </defs>
  <path class="cls-10" d="M655.05,302.7c-.04,5.11,.23,36.26,23.92,54.92,7.16,5.64,14.58,8.66,20.56,10.33,5.86-.44,14.18-1.01,24.18-1.48,10.7-.5,27.83-1.3,41.2-.89,13.61,.42,33.29,2.42,57.59,9.74,5.58-.93,30.8-5.73,43.41-27.02,5.26-8.88,6.2-17.04,7.97-32.33,1.69-14.64,2.85-25.93-4.05-31.76-4.82-4.07-11.62-3.84-15.89-3.23-12.74,3.39-23.39,4.96-31.01,5.76-8.62,.9-11.84,.65-15.06-.44-3.12-1.06-11.2-4.59-17.93-19.08-14.54-31.32-1.38-54.9-14.02-92.19-3.04-8.97-6.62-15.88-9.01-20.1-7.67-5.98-40.79-30.43-88.16-26.77-2.56,.2-58.47,5.33-89.38,47.61-35.04,47.93-26.37,127.73,29.53,185.74-4.49,24.91-8.97,49.82-13.46,74.73,53.83-1.63,107.65-3.27,161.48-4.9-5.37-8.54-11.69-20.62-16.08-35.99-3.22-11.25-4.59-21.4-5.11-29.65-3.25,.06-6.52,.14-9.82,.24-12.46,.39-24.59,1.07-36.38,2.01-5.13-1.41-12.87-4.27-20.56-10.33-13.5-10.65-18.27-24.44-20.49-31.27-3.05-9.39-3.57-17.75-3.43-23.65Z"/>
  <path class="cls-20" d="M863.7,351.7c-1.16-1.47-2.86-3.3-5.25-4.95-4.51-3.12-9.02-3.94-11.48-4.19-21.04,14.03-38.22,16.73-49.66,16.77-41.12,.17-60-33.7-115.66-55.61-25.75-10.14-48.61-13.47-63.37-14.74-3.6-5.17-15.09-23.01-12.85-47.39,1.48-16.13,8.3-27.75,12.18-33.4,3.16-1.24,11.91-5.14,18.13-14.77,5.32-8.24,5.97-16.31,6.04-19.8,7.07-5.61,37.17-28.18,78.89-24.17,24.62,2.37,42.41,12.95,51.23,19.12,5.07,9.22,11.78,24.01,14.85,43.34,3.02,19.01,1.32,34.91-.58,45.18,.73,3.28,2.27,8,5.89,12.33,6.92,8.29,17.01,9.87,29.1,11.59,8.53,1.21,21.23,2.08,36.74-.33,1.46-.17,5.63-.46,9.74,2.06,2.54,1.56,5.37,4.67,7.28,12.47,.71,2.92,3.32,14.79-3.08,36.09-1.54,5.1-4.03,12.23-8.14,20.41Z"/>
  <g>
    <g>
      <path class="cls-21" d="M675.77,262.91c-1.83-.35-4.69-1.15-7.52-3.2-1.99-1.44-4.38-3.8-6.56-8.63-1.3-2.89-4.83-11.8-3.2-26.54,.92-8.32,1.81-16.29,7.36-24.62,2.49-3.74,10.92-16.4,24.25-16.7,11.68-.26,19.89,9.14,22.45,12.06,12.43,14.23,10.96,33.67,10.07,45.41-.72,9.47-2.75,17.06-4.32,21.9-5.36,.98-11.59,1.75-18.54,1.95-9.23,.27-17.34-.52-23.99-1.63Z"/>
      <path class="cls-16" d="M675.77,262.91c-17.84-3.43-19.23-27.45-17.4-42.04,.6-6.23,1.86-12.61,4.81-18.24,7.1-13.48,20.54-25.59,36.57-18.99,5.61,2.28,10.16,6.25,13.99,10.77,4.54,5.3,7.61,11.84,9.09,18.62,1.89,8.34,1.6,16.88,.87,25.16-.61,8.33-2.25,16.63-4.98,24.52-.05,.15-.18,.26-.33,.29-3.53,.58-7.08,1-10.64,1.27-10.66,.86-21.43,.41-31.97-1.37h0Zm0,0c14.05,2.31,28.51,2.11,42.46-.74,0,0-.33,.29-.33,.29,2.42-7.93,3.72-16.12,4.03-24.38,.66-12.21,.07-24.9-6.1-35.62-4.5-7.57-11.38-14.54-19.96-17.08-11.25-3.17-21.39,4.22-27.74,13.01-5.16,6.51-7.68,14.43-8.67,22.62-.58,4.1-1.08,8.21-1.04,12.35-.02,11.74,3.94,27.22,17.35,29.55h0Z"/>
    </g>
    <ellipse class="cls-19" cx="683.61" cy="227.74" rx="4.48" ry="25.42"/>
  </g>
  <g>
    <g>
      <path class="cls-21" d="M770.19,257.21c.38-.05,5.51-.72,9.43-4.27,1.94-1.75,5.49-5.93,5.47-22.01-.02-13.86-.04-29.44-8.73-33.34-2.73-1.22-6.26-1.28-9.21,0-12.55,5.45-12.88,34.43-8.42,53.78,.37,1.59,.71,2.89,.95,3.75,1.38,.76,5.32,2.71,10.5,2.09Z"/>
      <path class="cls-16" d="M770.19,257.21c10.89-1.89,13.72-8.78,14.2-18.94,.26-8.66-.03-17.62-1.35-26.12-1.32-8.38-5.38-16.63-15.15-13.26-7.5,3.51-9.33,13.96-10.43,21.48-1.15,10.08-.7,20.48,1.3,30.45,.25,1.37,.76,3.05,.96,4.24,3.15,1.78,6.87,2.55,10.47,2.15h0Zm0,0c-3.61,.44-7.41-.27-10.57-2.07-4.14-15.36-7.39-37.65,.2-52.42,3.9-7.71,14.44-10.48,20.74-3.84,6.57,7.8,5.19,21.1,5.2,30.64-.32,7.22-.42,15.09-4.3,21.45-2.59,3.61-6.98,5.58-11.27,6.24h0Z"/>
    </g>
    <ellipse class="cls-19" cx="764.24" cy="229.59" rx="3.64" ry="22.46"/>
  </g>
  <path class="cls-18" d="M739.33,140.48c7.92-3.54,9.99-6.96,10.26-9.55,.61-5.77-7.39-9.56-6.74-16.65,.29-3.14,2.14-5.56,3.68-7.13-2.87-1.32-4.99-2.68-6.33-3.62-6.82-4.76-8.26-8.9-15.06-12.05-2.66-1.23-3.99-1.85-5.37-1.34-4.72,1.74-4.32,13.77-4.05,22.13,.16,4.84,.71,11.81,2.54,20.19,3.6,.96,7.55,2.21,11.72,3.85,3.42,1.34,6.54,2.76,9.35,4.17Z"/>
  <path class="cls-10" d="M693.03,128.09c6.4-15.73,12.8-31.47,19.2-47.2,3.89,.64,10.58,1.23,18.51-.69,7.62-1.84,13.14-5.21,16.29-7.49,3.49,5.51,9.09,12.92,17.64,19.83,12.77,10.32,25.76,14.38,33.25,16.11-16.31,4.54-36.45,6.8-53.82-2.74-12.84-7.06-19.17-17.83-24.34-15.76-4.04,1.61-6.65,10.78-1.51,42.32l-25.23-4.37Z"/>
  <path class="cls-10" d="M751.14,109.1c-2.37,1.54-5.5,4.09-5.67,7.43-.3,5.93,8.97,8.44,10.67,15.93,.69,3.05,.34,7.83-5.33,14.88l-11.48-6.86c5.69-3.87,7.03-7.34,7.26-9.7,.58-5.9-5.3-9.32-4.6-15.66,.41-3.66,2.79-6.37,4.53-7.98l4.62,1.95Z"/>
  <path class="cls-18" d="M629.18,1c-10.43,16.46-12.27,29.75-12.23,38.44,.17,38.26,37.35,63.35,26.79,92.89-1.2,3.36-2.67,5.87-3.52,7.21-3.79,1.94-7.9,4.27-12.18,7.09-4.67,3.08-8.74,6.19-12.22,9.14,1.22-9.58,2.27-24.7-.62-42.67-5.32-33.13-19.04-44.98-16.89-66.1,1.15-11.3,7.08-27.62,30.87-46.01Z"/>
  <path class="cls-10" d="M574.7,208.25c8.54-31.67,10.59-57.7,10.85-75.79,.55-38.81-7.13-56.32,1.69-81.41,8.67-24.66,27.57-40.56,41.93-50.05-23.48,20.81-28.52,38.21-28.95,50.05-.74,20.8,12.63,31.52,16.94,61.53,2.61,18.16,.6,33.47-1.36,43.2-4.85,4.1-9.93,8.87-15,14.4-12.27,13.38-20.53,26.88-26.11,38.07Z"/>
  <path class="cls-15" d="M874.93,295.2c-1.45,4.36-4.05,10.5-8.75,16.9-5.08,6.91-10.64,11.42-14.57,14.12-2.06-3.48-6.51-9.91-14.57-15.01-9.14-5.78-17.98-6.71-22.08-6.89,.23-2.39,1.05-7.63,4.86-12.76,5.05-6.8,11.97-8.89,14.14-9.45,7.98-.49,15.96-.97,23.95-1.46,1.46-.17,5.63-.46,9.74,2.06,6.58,4.03,7.22,11.66,7.28,12.47Z"/>
  <path class="cls-17" d="M812.61,288.23c-25.9,.67-51.88-12.41-66.57-33.78,2.16,2.38,4.34,4.73,6.7,6.9,16.17,15.58,37.49,24.84,59.87,26.88h0Z"/>
  <path class="cls-17" d="M784.18,288.33c-1.68,1.34-3.24,1.93-5.1,2.74-1.69,.94-3.17,2.23-4.38,3.77,0,0-.17-.1-.17-.1,.75-1.93,2.02-3.68,3.65-4.99,1.58-1.5,3.79-2.38,5.97-1.62,0,0,.03,.2,.03,.2h0Z"/>
  <path class="cls-17" d="M767.71,278.82c-1.35,1.21-2.54,1.63-4.11,2.19-1.39,.69-2.64,1.66-3.68,2.85,0,0-.17-.1-.17-.1,.59-1.59,1.64-3.03,2.99-4.09,1.31-1.27,3.2-1.93,4.96-1.04,0,0,.02,.2,.02,.2h0Z"/>
  <path class="cls-17" d="M756.55,270.82c-1.75,.93-3.14,1.22-4.9,1.76-1.6,.69-3,1.83-4.06,3.26,0,0-.18-.09-.18-.09,.91-2.71,3.32-5.25,6.2-5.81,1.01-.08,2.06,.06,2.95,.68,0,0-.02,.2-.02,.2h0Z"/>
  <path class="cls-17" d="M766.77,268.02c2.03-2.08,4.95-1.13,7.34-.42,.79,.29,1.56,.61,2.28,1.02l-.06,.19c-1.59-.23-3.18-.3-4.76-.23-1.68,.27-3.06,.36-4.75-.36,0,0-.04-.2-.04-.2h0Z"/>
  <path class="cls-17" d="M776.12,274.7c2.42-2.23,5.76-1.43,8.65-.9,.96,.24,1.9,.5,2.8,.87l-.04,.2c-1.9-.12-3.8-.09-5.68,.09-1.95,.36-3.67,.58-5.68-.05,0,0-.04-.19-.04-.19h0Z"/>
  <path class="cls-17" d="M792.37,282.76c1.53-2.42,4.61-1.88,6.95-1.3,.78,.24,1.53,.53,2.23,.92l-.06,.19c-1.52-.19-3.04-.16-4.53,.08-1.56,.44-2.79,.71-4.52,.3,0,0-.08-.18-.08-.18h0Z"/>
  <circle class="cls-4" cx="739.33" cy="160.79" r="4.33"/>
  <circle class="cls-4" cx="726.18" cy="157.06" r="4.33"/>
  <circle class="cls-4" cx="711.23" cy="155.31" r="4.33"/>
  <circle class="cls-4" cx="694.97" cy="158.14" r="4.33"/>
  <circle class="cls-4" cx="677.36" cy="163" r="4.33"/>
  <circle class="cls-4" cx="660.67" cy="169.3" r="3.42"/>
  <circle class="cls-4" cx="753.65" cy="165.13" r="3.42"/>
  <circle class="cls-4" cx="648.52" cy="175.61" r="2.45"/>
  <circle class="cls-4" cx="765.61" cy="171.4" r="2.71"/>
  <path class="cls-10" d="M766.92,431.35c11.35,11.51,22.71,23.01,34.06,34.52,7.19,75-8.64,125.55-22.61,156.2-45.95,100.83-132.33,119.22-227.02,242.81-35.1,45.81-57.09,87.47-69.23,112.75-56.48-36.96-112.97-73.93-169.45-110.89,6.61-58.47,13.22-116.94,19.83-175.41,30.98-68.12,69.23-107.7,98.61-131.31,58.38-46.9,109.84-53.33,151.45-111.62,22.84-32,32.1-64.76,36.35-86.87l148.02,69.82Z"/>
  <path class="cls-10" d="M307.24,881.12l-52.4,50.25h-38.88s-129.02-21.14-188.52-7.26c-59.5,13.88,0,45.69,0,45.69l222.1,2.94h75.97c1.79-10.2,3.29-25.87,.04-44.47-3.79-21.75-12.38-37.85-18.31-47.16Z"/>
  <path class="cls-13" d="M652.14,760.78c-31.14,52.47-62.27,104.94-93.41,157.41l99.35,4.46,25.53,35.66h-196.74c16.9-28.74,38.06-60.54,64.47-93.42,34.64-43.14,69.71-77.44,100.79-104.1Z"/>
  <path class="cls-10" d="M339.12,677.38c-60.67,113.08-57.43,163.28-41.33,187.93,4.86,7.45,18.94,24.89,25.74,52.91,5.8,23.88,3.79,45.02,1.21,59.09l101.9,21.36h56.76c3.87,0,21.93-31.67,21.93-31.67-22.04-9.26-44.08-18.53-66.12-27.79,33.92-45.77,36.83-103.23,9.37-141.15-21.18-29.24-53.75-37.65-65.31-40.05"/>
  <path class="cls-10" d="M789.8,597.99l-33.66,248.85,16.83,106.81,42,35.17-12.76,9.85h-79.01l-17.53-47.62c-1.3-77.31-2.61-154.61-3.91-231.92,13.7-11.14,29.72-26.21,45.29-46.01,21.83-27.76,34.88-54.78,42.76-75.12Z"/>
  <path class="cls-9" d="M605.15,680.69c-7.86,29.96-15.73,59.92-23.59,89.89,.55,55.38,1.09,110.76,1.64,166.14l21.95,61.95h-85.78l13.03-59.35c-3.4-61.96-6.8-123.92-10.2-185.88-1.78-13.86-5.01-34.96-11.1-60.3-6.42-26.71-11.56-39.61-15.18-53.4-5.96-22.67-10.23-56.84,0-104.2"/>
  <path class="cls-8" d="M607.94,400.58c26.62,5.15,53.24,10.31,79.85,15.46,26.37,5.11,52.75,10.21,79.12,15.32,5.58,5.66,11.16,11.31,16.74,16.97,5.77,5.85,11.55,11.7,17.32,17.55,.52,7.76,1.03,15.52,1.55,23.28-29.38-13.64-68.27-28.34-115.44-37.76-37.91-7.57-71.88-9.88-99.82-9.91,3.85-5.92,7.84-12.7,11.68-20.34,3.66-7.29,6.61-14.21,9-20.57Z"/>
  <path class="cls-1" d="M618.9,361.52c21.36,10.15,53.34,21.66,92.99,22.95,13.12,.43,25.19-.33,35.97-1.7,1.18,6.28,2.97,13.43,5.72,21.13,3.99,11.17,8.87,20.33,13.33,27.44-52.99-10.26-105.98-20.52-158.97-30.77,2.02-5.39,4-11.24,5.81-17.53,2.2-7.62,3.87-14.84,5.14-21.52Z"/>
  <path class="cls-20" d="M774.17,643.71c-7.17,13.5-17.92,30.31-33.85,47.1-9.64,10.17-19.25,18.29-27.9,24.7,1.77,27.6,3.53,55.21,5.3,82.81l22.88,7.64c11.19-54.08,22.38-108.17,33.57-162.25Z"/>
  <polygon class="cls-20" points="766.92 958.3 802.11 983.98 734.77 988.72 721.85 958.3 766.92 958.3"/>
  <rect class="cls-20" x="717.14" y="848.84" width="35.62" height="88.69" rx="13.97" ry="13.97" transform="translate(1561.21 1702.65) rotate(173.86)"/>
  <path class="cls-3" d="M800.97,465.87l-26.56,11.23-7.5-45.75-40.72,29.47-35.56-44.24-32.56,29.88-28.9-39.64-41.92,34.66c4.97-7.64,10.04-16.5,14.71-26.62,2.28-4.93,4.25-9.71,5.97-14.29,52.99,10.26,105.98,20.52,158.97,30.77,5.58,5.66,11.16,11.31,16.74,16.97,5.77,5.85,11.55,11.7,17.32,17.55Z"/>
  <path class="cls-5" d="M486.87,523.29c94.47,54.81,126.7,108.25,139.05,145.37,0,0,1.29,3.87,26.21,92.11h0c12.48-9.51,29.9-23.47,49.61-41.66,22.45-20.72,35.99-33.21,50.15-52.38,6.02-8.15,25.76-35.92,38.8-77.53,12.82-40.89,13.39-76.7,11.82-100.06-25.8-11.99-58.48-24.56-97.32-33.79-45.7-10.86-86.21-13.84-117.94-13.87-9.1,14.07-18.28,24.24-25.24,31.1-17.19,16.93-34.79,27.38-55.05,39.42-8.2,4.87-15.17,8.68-20.09,11.29Z"/>
  <polygon class="cls-14" points="575.24 457.98 701.75 468.71 687.43 489.15 562.02 472.58 575.24 457.98"/>
  <path class="cls-14" d="M652.14,760.78s1.68-69.5,5.94-74.65-36.23-72.18-36.23-72.18l14.71-20.62,8.44,27.5,48.02,44.69-2.39,63.66-38.5,31.62Z"/>
  <polygon class="cls-14" points="547.44 485.53 683.61 507.38 645.62 535.54 531.96 496.61 547.44 485.53"/>
  <polygon class="cls-20" points="575.24 944.78 587.26 984.31 531.96 984.31 542.02 944.78 575.24 944.78"/>
  <rect class="cls-20" x="537.72" y="786.66" width="30.8" height="131.48" rx="12.07" ry="12.07" transform="translate(1106.24 1704.81) rotate(-180)"/>
  <polygon class="cls-20" points="562.02 760.78 585.24 677.05 511.1 614.8 531.96 760.78 562.02 760.78"/>
  <circle class="cls-20" cx="728.99" cy="826.33" r="7.15"/>
  <circle class="cls-20" cx="740.85" cy="948.02" r="5.37"/>
  <circle class="cls-20" cx="556.44" cy="931.38" r="7.26"/>
  <circle class="cls-20" cx="550.76" cy="773.88" r="5.68"/>
  <path class="cls-2" d="M474.42,530.47v77.01c-12.04,7.35-26.92,18-41.9,33.04-16.97,17.04-28.43,34.04-35.96,47.28l-49-26.51c10.47-19.62,26.38-44.69,50.12-70.06,27.58-29.48,55.73-48.69,76.74-60.75Z"/>
  <path class="cls-12" d="M465.82,535.54v70.17c-10.86,6.7-24.28,16.4-37.79,30.11-15.31,15.53-25.64,31.02-32.43,43.08l-44.19-24.16c9.44-17.88,23.79-40.72,45.2-63.85,24.88-26.87,50.27-44.37,69.21-55.36Z"/>
  <path class="cls-11" d="M437.16,554.25c1.04,16.58,2.08,33.15,3.12,49.73-6.99,4.18-16.45,10.88-25.64,21.15-10.13,11.32-15.99,22.58-19.33,30.45-10.86-6.83-21.71-13.66-32.57-20.49,7.95-12.63,18.35-27.09,31.82-41.96,14.92-16.47,29.76-29.22,42.59-38.87Z"/>
  <path class="cls-14" d="M726.3,696c5.99-11.5,12.78-29.14,9.34-48.79-4.04-23.09-19.19-31.82-27.36-49.82-7.79-17.17-10.56-45.67,15.8-94.28-3.3,12.99-2.28,22.62-1.14,28.33,7.65,38.34,50.88,50.5,51.79,84.02,.19,6.85-1.46,12.35-2.44,15.14-3.11,7.53-7.1,15.79-12.27,24.38-10.91,18.13-23.32,31.56-33.71,41.02Z"/>
  <path class="cls-7" d="M296.94,773.88c9.26-5.05,23.41-11.42,41.65-14.81,18.48-3.43,34.15-2.51,44.67-1.07,9.03,1.6,40.42,8.33,62.86,36.83,24.4,30.98,21.21,66.1,20.13,78.05-3.06,33.75-19.54,56.96-27.04,66.32-6.38-6.43-24.42-22.93-53.41-28.52-30.34-5.85-54.16,3.82-62.27,7.54-6.16-19.02-13.36-33.25-18.92-42.88-7.15-12.38-10.6-15.44-13.76-25.35-4.58-14.35-3.32-26.69-1.97-39.92,.91-8.92,2.97-21.53,8.06-36.19Z"/>
  <path class="cls-6" d="M439.21,939.2c3.23-47.54-19.5-91.98-58.32-113.68-42.02-23.5-84.97-10.3-92.76-7.76-1.45,17.71,1.87,30.26,5.05,38.31,5.62,14.27,13.25,20.68,22.57,41.48,3.89,8.67,6.35,16.03,7.78,20.67,9.24-4.21,25.88-10.21,47.01-9.3,37.37,1.62,61.89,23.72,68.66,30.27Z"/>
</svg>