<?xml version="1.0" encoding="UTF-8"?>
<svg id="Capa_1" data-name="Capa 1" xmlns="http://www.w3.org/2000/svg" viewBox="0 0 1000.01 632.44">
  <defs>
    <style>
      .cls-1, .cls-2, .cls-3, .cls-4, .cls-5, .cls-6, .cls-7, .cls-8, .cls-9, .cls-10, .cls-11 {
        stroke-miterlimit: 10;
      }

      .cls-1, .cls-12 {
        fill: #36a9e1;
      }

      .cls-1, .cls-6, .cls-8 {
        stroke: #1d1d1b;
      }

      .cls-2 {
        fill: #222677;
      }

      .cls-2, .cls-4, .cls-5, .cls-7, .cls-9, .cls-10, .cls-11 {
        stroke: #29235c;
        stroke-width: 2px;
      }

      .cls-13 {
        fill: #662483;
      }

      .cls-14 {
        fill: #f39200;
      }

      .cls-3 {
        stroke: #36a9e1;
      }

      .cls-3, .cls-15 {
        fill: #a3195b;
      }

      .cls-4 {
        fill: #2fac66;
      }

      .cls-16 {
        fill: #e8e7d2;
      }

      .cls-5 {
        fill: #e94e1b;
      }

      .cls-6 {
        fill: #008d36;
      }

      .cls-7 {
        fill: #461560;
      }

      .cls-8, .cls-9, .cls-17 {
        fill: #e6007e;
      }

      .cls-10 {
        fill: #fcea10;
      }

      .cls-18 {
        fill: #1d1d1b;
      }

      .cls-11 {
        fill: #951b81;
      }
    </style>
  </defs>
  <path class="cls-2" d="M422.23,317.03c26.83,15.79,49.84,23.32,64.87,27.24,72.94,19,151.49,3.18,187.81,26.35,2.39,1.53,10.49,6.97,22.67,12,15.38,6.34,29.11,8.64,38.36,9.59-.35,12.96-3.28,65.36-44.99,109.13-34.19,35.87-74.74,45.27-89.25,47.93-60.27,10.89-128.01,18.64-202.1,19.91-23.88,.41-47.01,.12-69.34-.74-3.79-5.23-9.83-13.32-17.7-22.86-15.57-18.86-26.43-28.94-32.45-35.39-38.57-41.33-38.43-104.8-38.36-109.87,.17-11.54,1.7-29.17,8.85-50.14,7.69-1.42,17.8-4.14,28.77-9.59,15.49-7.7,26.04-17.55,32.34-24.47,36.84,.3,73.69,.61,110.53,.91h-.01Z"/>
  <g>
    <g>
      <path class="cls-2" d="M388.29,242.04c.03,4.09-.19,28.99-19.13,43.91-5.73,4.51-11.66,6.92-16.44,8.26-4.68-.35-11.34-.81-19.34-1.18-8.55-.4-22.25-1.04-32.94-.71-10.88,.34-26.62,1.94-46.05,7.79-4.46-.74-24.63-4.58-34.71-21.6-4.21-7.1-4.96-13.62-6.38-25.85-1.35-11.71-2.28-20.73,3.24-25.39,3.85-3.26,9.29-3.07,12.7-2.58,10.19,2.71,18.7,3.97,24.8,4.6,6.9,.72,9.47,.52,12.04-.35,2.49-.85,8.96-3.67,14.34-15.26,11.63-25.04,1.11-43.9,11.21-73.71,2.43-7.17,5.29-12.7,7.2-16.07,6.13-4.78,32.62-24.33,70.5-21.4,2.04,.16,46.75,4.26,71.47,38.07,28.02,38.32,21.09,102.12-23.61,148.5,3.59,19.91,7.17,39.83,10.76,59.74-43.04-1.31-86.08-2.61-129.12-3.92,4.29-6.83,9.35-16.49,12.86-28.78,2.57-9,3.67-17.11,4.08-23.71,2.6,.05,5.21,.11,7.85,.19,9.96,.31,19.66,.86,29.09,1.61,4.1-1.13,10.29-3.41,16.44-8.26,10.79-8.52,14.61-19.54,16.38-25,2.44-7.51,2.86-14.19,2.75-18.91h0Z"/>
      <path class="cls-16" d="M221.44,281.22c.93-1.18,2.29-2.64,4.2-3.96,3.61-2.49,7.21-3.15,9.18-3.35,16.82,11.21,30.56,13.37,39.71,13.41,32.88,.13,47.98-26.94,92.48-44.46,20.59-8.11,38.87-10.77,50.67-11.79,2.88-4.13,12.07-18.4,10.27-37.89-1.19-12.9-6.64-22.19-9.74-26.7-2.52-.99-9.53-4.11-14.5-11.81-4.25-6.59-4.77-13.04-4.83-15.83-5.66-4.49-29.72-22.53-63.09-19.32-19.69,1.89-33.91,10.35-40.96,15.29-4.05,7.37-9.42,19.19-11.88,34.65-2.41,15.2-1.06,27.91,.47,36.12-.58,2.63-1.81,6.39-4.71,9.86-5.54,6.63-13.6,7.89-23.27,9.26-6.82,.97-16.97,1.66-29.38-.27-1.17-.14-4.5-.36-7.79,1.65-2.03,1.24-4.29,3.73-5.82,9.97-.57,2.33-2.66,11.83,2.47,28.85,1.23,4.08,3.23,9.78,6.51,16.32h.01Z"/>
      <g>
        <g>
          <path class="cls-18" d="M371.71,210.23c1.46-.28,3.75-.92,6.01-2.56,1.59-1.15,3.5-3.04,5.24-6.9,1.04-2.31,3.86-9.43,2.56-21.22-.74-6.65-1.44-13.02-5.88-19.68-1.99-2.99-8.73-13.11-19.39-13.35-9.34-.21-15.91,7.31-17.95,9.64-9.94,11.38-8.76,26.92-8.06,36.3,.57,7.57,2.2,13.64,3.45,17.51,4.29,.78,9.27,1.4,14.83,1.56,7.38,.22,13.87-.42,19.18-1.3h.01Z"/>
          <path class="cls-13" d="M371.71,210.23c14.29-2.76,15.41-21.92,14.02-33.62-.46-4.99-1.45-10.13-3.8-14.65-2.44-4.54-5.45-8.68-9.48-12.01-11.21-9.17-24.11-4.24-32.13,6.36-7.73,9.48-8.34,22.64-7.11,34.19,.52,6.67,1.87,13.32,4.08,19.62l.09,.25,.24,.04c11.27,1.75,22.84,1.75,34.09-.16h0v-.02Zm0,0c-11.23,1.84-22.79,1.66-33.94-.67l.33,.29c-1.9-6.34-2.91-12.88-3.12-19.48-.53-10.51,.16-21.52,6.21-30.34,12.63-17.72,28.5-15.15,39.17,2.77,6.76,12.19,9.52,44.05-8.65,47.43h0Z"/>
        </g>
        <ellipse class="cls-14" cx="365.45" cy="182.11" rx="3.58" ry="20.32"/>
      </g>
      <g>
        <g>
          <path class="cls-18" d="M296.21,205.67c-.3-.04-4.4-.58-7.54-3.41-1.55-1.4-4.39-4.74-4.37-17.59,.01-11.08,.03-23.54,6.98-26.66,2.18-.98,5.01-1.02,7.36,0,10.03,4.36,10.3,27.53,6.73,42.99-.29,1.27-.57,2.31-.76,3-1.1,.61-4.25,2.17-8.4,1.67h0Z"/>
          <path class="cls-13" d="M296.21,205.67c-8.66-1.48-10.97-7.08-11.29-15.15-.18-6.91,.2-14.08,1.26-20.84,1.02-6.43,4.25-13.03,11.75-10.37,5.95,2.88,7.28,10.9,8.23,16.92,1.15,9.19,.65,18.72-1.62,27.74-2.3,1.25-5.5,2.07-8.33,1.69h0Zm0,0c2.9,.37,5.89-.23,8.46-1.62,.31-1.14,.65-2.28,.94-3.42,1.91-8.04,2.97-16.26,2.58-24.57-.51-6.95-1.83-16.05-9.12-19.47-3.78-1.62-8.56-.83-11.35,2.27-2.55,2.84-3.47,6.89-3.89,10.49-.55,4.79-.35,9.51-.19,14.2,.32,5.77,.42,12.08,3.54,17.16,2.09,2.88,5.6,4.45,9.03,4.98h0v-.02Z"/>
        </g>
        <ellipse class="cls-14" cx="300.97" cy="183.59" rx="2.91" ry="17.96"/>
      </g>
      <path class="cls-15" d="M320.9,112.35c-6.34-2.83-7.98-5.56-8.2-7.64-.48-4.61,5.91-7.64,5.39-13.31-.23-2.51-1.71-4.44-2.94-5.7,2.29-1.06,3.99-2.14,5.06-2.89,5.46-3.81,6.6-7.11,12.04-9.63,2.13-.98,3.19-1.48,4.29-1.07,3.78,1.39,3.46,11.01,3.24,17.69-.13,3.87-.57,9.44-2.03,16.14-2.88,.77-6.03,1.77-9.38,3.08-2.73,1.07-5.23,2.2-7.48,3.34h.01Z"/>
      <path class="cls-2" d="M357.92,102.44c-5.12-12.58-10.23-25.16-15.35-37.74-3.11,.51-8.46,.98-14.8-.55-6.1-1.47-10.5-4.17-13.03-5.99-2.79,4.4-7.27,10.33-14.11,15.85-10.21,8.25-20.6,11.5-26.59,12.88,13.04,3.63,29.15,5.44,43.03-2.19,10.27-5.64,15.33-14.25,19.46-12.6,3.23,1.29,5.32,8.62,1.21,33.83l20.17-3.49h0Z"/>
      <path class="cls-2" d="M311.45,87.26c1.89,1.23,4.39,3.27,4.53,5.94,.24,4.74-7.17,6.75-8.53,12.73-.55,2.43-.27,6.26,4.26,11.89l9.18-5.48c-4.55-3.1-5.62-5.86-5.8-7.76-.46-4.71,4.24-7.45,3.67-12.52-.32-2.92-2.23-5.09-3.62-6.38l-3.69,1.56v.02Z"/>
      <path class="cls-15" d="M408.97,.83c8.34,13.16,9.81,23.79,9.78,30.73-.13,30.59-29.86,50.65-21.43,74.27,.96,2.69,2.14,4.69,2.82,5.77,3.03,1.55,6.31,3.42,9.74,5.67,3.73,2.46,6.99,4.95,9.78,7.31-.98-7.66-1.82-19.75,.49-34.11,4.26-26.49,15.23-35.96,13.51-52.85-.92-9.04-5.66-22.08-24.69-36.78h0Z"/>
      <path class="cls-2" d="M452.53,166.53c-6.83-25.32-8.47-46.13-8.67-60.59-.44-31.03,5.7-45.03-1.35-65.09-6.94-19.72-22.04-32.43-33.53-40.02,18.77,16.64,22.81,30.55,23.15,40.02,.59,16.63-10.1,25.2-13.54,49.19-2.08,14.52-.48,26.76,1.08,34.53,3.88,3.28,7.94,7.09,11.99,11.51,9.81,10.7,16.42,21.49,20.88,30.44h-.01Z"/>
      <path class="cls-17" d="M212.46,236.05c1.16,3.48,3.23,8.39,7,13.51,4.07,5.53,8.51,9.13,11.65,11.29,1.65-2.78,5.21-7.92,11.65-12,7.31-4.62,14.38-5.37,17.65-5.5-.18-1.91-.84-6.1-3.89-10.2-4.04-5.44-9.57-7.11-11.3-7.56-6.38-.39-12.77-.78-19.15-1.16-1.17-.14-4.5-.36-7.79,1.65-5.26,3.22-5.78,9.32-5.82,9.97h0Z"/>
      <path class="cls-12" d="M262.29,230.47c20.72,.84,41.71-9.73,53.23-27.01-13.71,15.33-32.79,24.95-53.23,27.01h0Z"/>
      <path class="cls-12" d="M285.02,230.57c1.28,1.26,2.44,1.72,3.99,2.31,1.36,.72,2.57,1.7,3.58,2.89l.17-.1c-.55-1.58-1.54-3.03-2.85-4.11-1.26-1.29-3.1-2-4.86-1.18l-.03,.2h0Z"/>
      <path class="cls-12" d="M298.2,222.97c1.02,1.14,1.87,1.49,3.2,1.86,1.12,.51,2.14,1.24,3.02,2.15l.17-.1c-.64-1.87-2.22-3.89-4.16-4.52-.72-.12-1.49-.07-2.21,.4l-.02,.2h0Z"/>
      <path class="cls-12" d="M307.12,216.58c1.38,.93,2.38,1.18,3.84,1.53,1.28,.51,2.42,1.37,3.31,2.47l.18-.09c-.65-2.21-2.59-4.39-4.93-4.83-.83-.04-1.7,.12-2.41,.72l.02,.2h-.01Z"/>
      <path class="cls-12" d="M298.95,214.29c-1.53-1.96-3.96-1.05-5.9-.42-.63,.26-1.24,.53-1.81,.89l.06,.19c.66-.05,1.3-.11,1.94-.1,1.4-.11,2.54,.29,3.69,.27,.61-.09,1.23-.22,1.97-.64l.04-.2h.01Z"/>
      <path class="cls-12" d="M291.48,219.64c-1.84-2.08-4.6-1.28-6.93-.8-.77,.22-1.52,.45-2.24,.77l.04,.2c1.53-.04,3.04,.03,4.54,.21,1.59,.37,2.91,.52,4.54-.18l.04-.19h.01Z"/>
      <path class="cls-12" d="M278.49,226.08c-.72-1.45-2.19-1.82-3.62-1.51-1.32,.11-2.62,.53-3.74,1.21l.06,.19c.63-.04,1.24-.07,1.85,0,1.46,0,2.27,.49,3.42,.64,.58,0,1.17-.05,1.95-.32l.08-.18h0v-.02Z"/>
      <circle class="cls-3" cx="320.9" cy="128.59" r="3.46"/>
      <circle class="cls-3" cx="331.41" cy="125.6" r="3.46"/>
      <circle class="cls-3" cx="343.36" cy="124.2" r="3.46"/>
      <circle class="cls-3" cx="356.36" cy="126.47" r="3.46"/>
      <circle class="cls-3" cx="370.44" cy="130.36" r="3.46"/>
      <circle class="cls-3" cx="383.79" cy="135.39" r="2.73"/>
      <circle class="cls-3" cx="309.44" cy="132.05" r="2.73"/>
      <circle class="cls-3" cx="393.51" cy="140.44" r="1.96"/>
      <circle class="cls-3" cx="299.88" cy="137.07" r="2.17"/>
    </g>
    <path class="cls-11" d="M529.54,351.9c14.76,17.13,19.77,32.29,21.8,41.96,8.73,41.63-19.94,66.99-19.64,121.5,.1,19.38,3.83,34.89,6.4,43.73-47.93,6.17-100.14,10.08-156.09,10.26-17.68,.05-34.94-.27-51.75-.91-8.07-10.8-16.91-21.98-26.59-33.39-11.01-12.99-21.92-24.88-32.5-35.72-9.76-14.79-27.36-46.08-29.12-88.78-.93-22.55,2.85-41.44,6.78-54.9,41.33-3.61,85-6.28,130.8-7.61,42.88-1.25,83.95-1.21,123.03-.21,3.74,.73,7.61,1.41,11.6,2.04,5.27,.83,10.37,1.51,15.28,2.05v-.02Z"/>
    <path class="cls-7" d="M373.91,569.34c3.91-2.12,16.77-9.73,22.17-25.26,7.39-21.27-5.47-40.32-7.65-43.56-8.06-11.96-13.16-9.11-39.55-29.23-25.47-19.43-31.07-29.99-33.64-36.37-3.88-9.63-4.42-18.49-4.3-24.25-10.42,15.76-15.37,30.15-17.9,39.81-2.89,11.05-14.36,54.47,5.77,79.13,3.22,3.94,9.08,9.56,19.24,22.42,5.33,6.75,9.48,12.49,12.21,16.39l43.66,.91h0Z"/>
    <path class="cls-7" d="M252.42,462.26c3.98-1.08,9.85-3.28,15.23-8.08,14.92-13.28,16.87-38.26,8.09-55.66-3.82-7.56-9.05-12.48-12.5-15.25,2.28,9.17,.7,14.74-1.29,18.19-3.36,5.83-8.62,6.82-13.6,14.33-2.84,4.28-4.14,8.49-4.79,11.42,.92,6.45,2.31,13.59,4.41,21.23,1.36,4.97,2.87,9.58,4.43,13.82h.02Z"/>
    <path class="cls-7" d="M421.5,505.37c-7.36-28.37-29.34-45.18-37.31-50.59-20.47-13.91-33.98-10.65-42.31-23.63-8.71-13.56-3.81-32.44,2.09-46.85,3.15,5.34,8.69,13.8,17.3,22.48,29.96,30.23,60.79,26.65,79.59,42.81,14.77,12.7,26.81,41.62,9.08,115.02-12.7,1.43-25.39,2.85-38.09,4.28,4.21-7.49,17.49-33.3,9.65-63.52h0Z"/>
    <path class="cls-2" d="M254.06,467.33c-18.37,8.63-36.73,17.26-55.1,25.9-13.94-.12-36.3,1.6-60.79,12.41-13.08,5.78-23.46,12.69-31.25,18.83-51.19-1.93-92.54,15.19-103.17,44.08-1.97,5.36-3.34,12.36-2.49,21.27,14.9,2.49,32.8,4.21,53,3.55,36.52-1.19,66.38-9.68,87.15-17.56,26.75-6.22,60.11-11.67,98.64-12.82,34.56-1.03,65.04,1.64,90.19,5.45-11.5-16.41-22.16-28.7-29.91-37.01-13.52-14.5-22.75-21.8-32.88-37.49-6.8-10.53-10.94-20.09-13.39-26.6h0Z"/>
    <path class="cls-2" d="M690.94,501.33c6.94,5.02,18.31,11.85,33.7,15.43,26.64,6.2,48.61-1.2,57.36-4.71,13.41,4.04,26.82,8.09,40.24,12.13,3,18.07,6,36.13,8.99,54.2-2.04,1.24-16.81,9.86-34.67,3.85-17.82-6-24.38-21.74-25.26-23.96-14.62-3.46-28.77-5.66-42.38-6.85-26.59-2.33-39.58,.2-69.78-1.28-15.16-.74-29.49-2.24-42.92-4.24,11.67-3.22,27.47-8.97,44.23-19.61,13.19-8.37,23.23-17.39,30.48-24.96h0Z"/>
    <path class="cls-2" d="M735.94,392.2c21.48,15.6,37.02,30.36,47.35,41.12,21.94,22.83,23.49,30.8,41.09,42.36,11.7,7.69,16.84,8,50.51,22.25,16.95,7.18,30.59,13.43,39.38,17.54,40.48,1.92,70.09,13.17,77.91,24.82,6.12,9.12,6.75,17.99,6.75,17.99,.44,6.1-.94,11.08-2.04,14.1h-53.51c-36.57-7.01-75.49-15.84-116.31-26.99-49.48-13.52-94.93-28.59-136.13-44.07,8.59-9.13,19.22-22.48,28.05-40.44,13.65-27.77,16.48-53.33,16.94-68.69h.01Z"/>
    <path class="cls-2" d="M500.64,433.49c4.44,10.18,11.69,26.62,21.09,46.9,15.18,32.74,20.31,41.74,16.69,53.06-2.73,8.57-11.99,15.53-30.39,29.1-13.44,9.91-25.33,17.19-33.95,22.1-5.54,12.53-11.07,25.07-16.61,37.6-7.84,3.62-22.61,9.21-41.91,9.19-19.16-.02-33.84-5.57-41.66-9.19,3.78-18.44,7.57-36.89,11.35-55.33,7.68-4.17,15.35-8.34,23.03-12.5,1.82-5,7.2-17.61,20.55-26.96,9.25-6.48,18.37-8.61,23.54-9.41-5.71-8.7-11.42-17.4-17.12-26.1,21.79-19.48,43.58-38.97,65.38-58.45h0Z"/>
    <path class="cls-4" d="M420.36,306.68c-16.37,3.27-36.78,5.89-60.24,5.58-17.51-.23-33.13-2.03-46.4-4.38-2.09,4.22-4.17,8.43-6.26,12.65,12.9,4.02,31.62,8.28,54.41,8.22,26.6-.07,47.95-5.99,61.65-10.98-1.05-3.7-2.1-7.4-3.15-11.1h0Z"/>
    <path class="cls-10" d="M422.86,316.97c-11.71,4.56-27.8,9.37-47.36,11.11-29.39,2.62-53.34-2.89-68.04-7.56-4.86,4.79-11.25,10.2-19.37,15.21-14.36,8.85-28.05,12.66-37.49,14.44-.59,1.82-1.17,3.64-1.76,5.46,37.69-3.3,77.26-5.8,118.56-7.22,47.31-1.63,92.47-1.7,135.27-.6-15.25-2.9-33.67-7.93-53.46-16.87-9.85-4.45-18.63-9.23-26.34-13.97h-.01Z"/>
    <path class="cls-9" d="M462.07,336.3l-4.59,10.8-34.62-30.13-15.25,30.13-21.93-20.24-20.2,21.61-24.57-20.81-18.42,22.74-15.03-29.88-25.47,32.45-13.84-7.61-19.32,10.27,1.76-5.46c7.55-1.39,17.7-4.09,28.77-9.59,12.9-6.41,22.16-14.2,28.1-20.05,12.32,3.94,29.83,8.03,51.06,8.22,28.12,.26,50.53-6.42,64.34-11.78,5.84,3.58,12.38,7.25,19.61,10.8,6.89,3.38,13.47,6.19,19.6,8.53h0Z"/>
    <path class="cls-16" d="M442.37,490.64c8.56-3.69,18.83-8.94,29.68-16.44,10.96-7.58,19.57-15.42,26.08-22.19,9.55,24.78,19.11,49.55,28.66,74.33-7.22,5.95-14.43,11.9-21.65,17.85-20.92-17.85-41.85-35.7-62.77-53.55Z"/>
    <path class="cls-16" d="M395.32,578.7c-2.8,12.71-5.6,25.42-8.41,38.13,18.98,1.74,37.96,3.47,56.93,5.21,4.08-10.07,8.17-20.13,12.25-30.2-20.26-4.38-40.52-8.76-60.78-13.14h0Z"/>
    <path class="cls-16" d="M437.19,582.28l-3.31-3.66c-3.78-4.2-3.43-10.7,.8-14.52l31.99-28.95c4.22-3.82,10.72-3.52,14.5,.67l3.31,3.66c3.78,4.2,3.43,10.7-.8,14.52l-31.99,28.95c-4.22,3.82-10.72,3.52-14.5-.67Z"/>
    <path class="cls-16" d="M23.98,552.48c-2.75,10.36-5.5,20.72-8.25,31.08,17.7-.12,35.39-.24,53.09-.36,4.03-13.93,8.06-27.87,12.09-41.8l-33.75,6.57c-7.73,1.5-15.45,3.01-23.18,4.51h0Z"/>
    <rect class="cls-16" x="102.27" y="530.11" width="96.97" height="22.7" rx="11.35" ry="11.35" transform="translate(-123.01 50.58) rotate(-13.59)"/>
    <path class="cls-16" d="M207.87,511.68c14.61-10.74,29.22-21.49,43.83-32.23,5.33,10.6,13.19,23.74,24.69,37.27,13.57,15.97,27.57,27.01,38.47,34.32-13.74-5.03-32.66-10.33-55.6-12.16-18.33-1.46-34.28-.31-46.85,1.51-1.51-9.57-3.02-19.14-4.53-28.71h-.01Z"/>
    <path class="cls-8" d="M552.99,353.97l13.13,47.59c11.9-2.75,33.11-6.03,58.77-1.07,24.32,4.7,42.04,14.75,52.02,21.45l26.25-37.16c-11.41-10.57-21.92-16.57-28.81-19.95-31.64-15.48-65.22-13.82-107.31-11.75-6.11,.3-11.07,.66-14.05,.89Z"/>
    <path class="cls-6" d="M559.19,353.66l12.1,40.98c10.97-2.37,30.51-5.19,54.16-.92,22.41,4.05,38.74,12.7,47.94,18.47,8.09-10.74,16.18-21.49,24.26-32.23-10.66-8.94-20.29-14.05-26.63-16.94-29.24-13.34-59.36-11.94-98.89-10.12-5.63,.26-10.2,.57-12.95,.77h0Z"/>
    <path class="cls-1" d="M567.82,353.23l10.61,31.77c9.62-1.84,26.75-4.03,47.49-.71,19.65,3.14,33.97,9.85,42.03,14.32,7.09-8.33,14.18-16.66,21.27-24.99-9.35-6.93-17.79-10.89-23.35-13.13-25.63-10.34-52.04-9.25-86.7-7.84-4.94,.2-8.94,.44-11.35,.6v-.02Z"/>
    <path class="cls-5" d="M735.94,392.2c-.46,15.36-3.29,40.92-16.94,68.69-8.83,17.96-19.46,31.31-28.05,40.44,4.31,1.62,8.67,3.24,13.07,4.84,4.43,1.62,8.84,3.21,13.21,4.76,7.86-4.48,21.36-13.68,31.61-30.19,19.02-30.64,12.21-62.83,10.49-70.07l-23.39-18.47h0Z"/>
    <path class="cls-5" d="M616.23,545.89c8.15,1.22,16.72,2.26,25.69,3.05,5.37,.48,10.61,.84,15.71,1.11,6.77-1.98,18.21-6.28,29.57-15.87,10.12-8.55,16.01-17.78,19.2-23.76-2.49-1.17-5.15-2.55-7.94-4.19-2.78-1.64-5.28-3.3-7.51-4.91-7.26,7.57-17.29,16.59-30.48,24.96-16.76,10.64-32.57,16.38-44.23,19.61h0Z"/>
  </g>
</svg>